<svg width="20" height="20" viewBox="0 0 20 20" fill="none" xmlns="http://www.w3.org/2000/svg">
<mask id="path-1-inside-1_57_1441" fill="white">
<path fill-rule="evenodd" clip-rule="evenodd" d="M8.28664 2.70833H11.714C13.2455 2.70832 14.4585 2.7083 15.4078 2.83594C16.3849 2.9673 17.1757 3.24406 17.7993 3.8677C18.4229 4.49133 18.6997 5.28212 18.831 6.25914C18.9587 7.20849 18.9587 8.42152 18.9587 9.95299V10.047C18.9587 11.5785 18.9587 12.7915 18.831 13.7408C18.6997 14.7179 18.4229 15.5087 17.7993 16.1323C17.1757 16.7559 16.3849 17.0327 15.4078 17.164C14.4585 17.2917 13.2455 17.2917 11.714 17.2917H8.28665C6.75518 17.2917 5.54215 17.2917 4.59281 17.164C3.61579 17.0327 2.825 16.7559 2.20136 16.1323C1.57773 15.5087 1.30096 14.7179 1.1696 13.7408C1.04197 12.7915 1.04198 11.5785 1.04199 10.047V9.95298C1.04198 8.42151 1.04197 7.20849 1.1696 6.25914C1.30096 5.28212 1.57773 4.49133 2.20136 3.8677C2.825 3.24406 3.61579 2.9673 4.59281 2.83594C5.54215 2.7083 6.75518 2.70832 8.28664 2.70833ZM4.75937 4.07479C3.92096 4.18752 3.43792 4.39891 3.08525 4.75158C2.73257 5.10426 2.52118 5.58729 2.40846 6.4257C2.29332 7.28209 2.29199 8.41098 2.29199 10C2.29199 11.589 2.29332 12.7179 2.40846 13.5743C2.52118 14.4127 2.73257 14.8957 3.08525 15.2484C3.43792 15.6011 3.92096 15.8125 4.75937 15.9252C5.61575 16.0403 6.74464 16.0417 8.33366 16.0417H11.667C13.256 16.0417 14.3849 16.0403 15.2413 15.9252C16.0797 15.8125 16.5627 15.6011 16.9154 15.2484C17.2681 14.8957 17.4795 14.4127 17.5922 13.5743C17.7073 12.7179 17.7087 11.589 17.7087 10C17.7087 8.41098 17.7073 7.28209 17.5922 6.4257C17.4795 5.58729 17.2681 5.10426 16.9154 4.75158C16.5627 4.39891 16.0797 4.18752 15.2413 4.07479C14.3849 3.95966 13.256 3.95833 11.667 3.95833H8.33366C6.74464 3.95833 5.61575 3.95966 4.75937 4.07479ZM4.52019 6.26655C4.74117 6.00137 5.13527 5.96555 5.40044 6.18652L7.19952 7.68576C7.97699 8.33365 8.51677 8.78201 8.97248 9.0751C9.41361 9.35882 9.71277 9.45406 10.0003 9.45406C10.2879 9.45406 10.587 9.35882 11.0282 9.0751C11.4839 8.78201 12.0237 8.33364 12.8011 7.68576L14.6002 6.18652C14.8654 5.96555 15.2595 6.00137 15.4805 6.26655C15.7014 6.53172 15.6656 6.92582 15.4004 7.1468L13.57 8.67214C12.8314 9.28769 12.2327 9.7866 11.7043 10.1264C11.1539 10.4804 10.6179 10.7041 10.0003 10.7041C9.38276 10.7041 8.84672 10.4804 8.29631 10.1264C7.76792 9.7866 7.16925 9.28769 6.43063 8.67215L4.60021 7.1468C4.33504 6.92582 4.29921 6.53172 4.52019 6.26655Z"/>
</mask>
<path d="M8.28664 2.70833L8.28663 4.70833H8.28664V2.70833ZM11.714 2.70833V4.70833H11.714L11.714 2.70833ZM15.4078 2.83594L15.6743 0.853775H15.6743L15.4078 2.83594ZM17.7993 3.8677L16.3851 5.28191L16.3851 5.28191L17.7993 3.8677ZM18.831 6.25914L16.8489 6.52564V6.52564L18.831 6.25914ZM18.9587 9.95299L16.9587 9.95297V9.95299H18.9587ZM18.9587 10.047H16.9587V10.047L18.9587 10.047ZM18.831 13.7408L16.8489 13.4744V13.4744L18.831 13.7408ZM17.7993 16.1323L16.3851 14.7181L16.3851 14.7181L17.7993 16.1323ZM15.4078 17.164L15.1414 15.1819H15.1413L15.4078 17.164ZM11.714 17.2917L11.714 15.2917H11.714V17.2917ZM8.28665 17.2917V15.2917H8.28663L8.28665 17.2917ZM4.59281 17.164L4.8593 15.1819H4.8593L4.59281 17.164ZM2.20136 16.1323L3.61558 14.7181L3.61557 14.7181L2.20136 16.1323ZM1.1696 13.7408L-0.812561 14.0073L1.1696 13.7408ZM1.04199 10.047L3.04199 10.047V10.047H1.04199ZM1.04199 9.95298H3.04199V9.95296L1.04199 9.95298ZM1.1696 6.25914L3.15177 6.52564L1.1696 6.25914ZM2.20136 3.8677L3.61558 5.28191L2.20136 3.8677ZM4.59281 2.83594L4.8593 4.81811L4.59281 2.83594ZM3.08525 4.75158L1.67103 3.33737L1.67103 3.33737L3.08525 4.75158ZM4.75937 4.07479L4.49287 2.09263L4.75937 4.07479ZM2.40846 6.4257L0.426293 6.15921L2.40846 6.4257ZM2.40846 13.5743L0.426293 13.8408L2.40846 13.5743ZM3.08525 15.2484L1.67103 16.6626L1.67103 16.6626L3.08525 15.2484ZM4.75937 15.9252L4.49287 17.9074H4.49287L4.75937 15.9252ZM15.2413 15.9252L15.5078 17.9074L15.5078 17.9074L15.2413 15.9252ZM16.9154 15.2484L15.5012 13.8342L15.5012 13.8342L16.9154 15.2484ZM17.5922 13.5743L15.61 13.3078V13.3078L17.5922 13.5743ZM17.5922 6.4257L15.61 6.6922V6.6922L17.5922 6.4257ZM16.9154 4.75158L15.5012 6.16579L15.5012 6.1658L16.9154 4.75158ZM15.2413 4.07479L14.9748 6.05696L14.9748 6.05696L15.2413 4.07479ZM5.40044 6.18652L4.12007 7.72297L4.12007 7.72297L5.40044 6.18652ZM4.52019 6.26655L6.05663 7.54692L6.05663 7.54692L4.52019 6.26655ZM7.19952 7.68576L8.47989 6.14931L8.47989 6.14931L7.19952 7.68576ZM8.97248 9.0751L7.8906 10.7572L7.89061 10.7572L8.97248 9.0751ZM11.0282 9.0751L12.11 10.7572L12.11 10.7572L11.0282 9.0751ZM12.8011 7.68576L14.0815 9.2222L12.8011 7.68576ZM14.6002 6.18652L15.8806 7.72297V7.72297L14.6002 6.18652ZM15.4004 7.1468L16.6808 8.68324L16.6808 8.68324L15.4004 7.1468ZM13.57 8.67214L12.2897 7.1357L12.2896 7.13572L13.57 8.67214ZM11.7043 10.1264L12.7862 11.8086H12.7862L11.7043 10.1264ZM8.29631 10.1264L7.21443 11.8086L7.21444 11.8086L8.29631 10.1264ZM6.43063 8.67215L7.71102 7.13573L7.711 7.1357L6.43063 8.67215ZM4.60021 7.1468L3.31984 8.68324L3.31984 8.68324L4.60021 7.1468ZM15.6743 0.853775C14.5615 0.704162 13.1923 0.708316 11.714 0.708328L11.714 4.70833C13.2987 4.70831 14.3555 4.71245 15.1413 4.81811L15.6743 0.853775ZM19.2135 2.45348C18.156 1.39602 16.8725 1.01487 15.6743 0.853775L15.1413 4.81811C15.8972 4.91973 16.1953 5.09211 16.3851 5.28191L19.2135 2.45348ZM20.8132 5.99265C20.6521 4.79448 20.271 3.51095 19.2135 2.45348L16.3851 5.28191C16.5749 5.47172 16.7473 5.76977 16.8489 6.52564L20.8132 5.99265ZM20.9587 9.953C20.9587 8.47473 20.9628 7.10546 20.8132 5.99265L16.8489 6.52564C16.9545 7.31152 16.9587 8.36831 16.9587 9.95297L20.9587 9.953ZM20.8132 14.0073C20.9628 12.8945 20.9587 11.5253 20.9587 10.047L16.9587 10.047C16.9587 11.6317 16.9545 12.6885 16.8489 13.4744L20.8132 14.0073ZM19.2135 17.5465C20.271 16.489 20.6521 15.2055 20.8132 14.0073L16.8489 13.4744C16.7473 14.2302 16.5749 14.5283 16.3851 14.7181L19.2135 17.5465ZM15.6743 19.1462C16.8725 18.9851 18.156 18.604 19.2135 17.5465L16.3851 14.7181C16.1953 14.9079 15.8972 15.0803 15.1414 15.1819L15.6743 19.1462ZM11.714 19.2917C13.1923 19.2917 14.5615 19.2958 15.6743 19.1462L15.1413 15.1819C14.3555 15.2875 13.2987 15.2917 11.714 15.2917L11.714 19.2917ZM4.32631 19.1462C5.43912 19.2958 6.80839 19.2917 8.28667 19.2917L8.28663 15.2917C6.70197 15.2917 5.64518 15.2875 4.8593 15.1819L4.32631 19.1462ZM0.787148 17.5465C1.84462 18.604 3.12814 18.9851 4.32631 19.1462L4.8593 15.1819C4.10344 15.0803 3.80538 14.9079 3.61558 14.7181L0.787148 17.5465ZM-0.812561 14.0073C-0.651471 15.2055 -0.270319 16.489 0.787149 17.5465L3.61557 14.7181C3.42577 14.5283 3.25339 14.2302 3.15177 13.4744L-0.812561 14.0073ZM-0.958008 10.047C-0.95802 11.5253 -0.962174 12.8945 -0.812561 14.0073L3.15177 13.4744C3.04611 12.6885 3.04198 11.6317 3.04199 10.047L-0.958008 10.047ZM-0.812561 5.99265C-0.962174 7.10546 -0.95802 8.47473 -0.958008 9.953L3.04199 9.95296C3.04198 8.3683 3.04611 7.31152 3.15177 6.52564L-0.812561 5.99265ZM0.787148 2.45348C-0.27032 3.51095 -0.651471 4.79448 -0.812561 5.99265L3.15177 6.52564C3.25339 5.76977 3.42577 5.47172 3.61558 5.28191L0.787148 2.45348ZM4.32631 0.853775C3.12814 1.01487 1.84462 1.39602 0.787148 2.45348L3.61558 5.28191C3.80538 5.09211 4.10344 4.91973 4.8593 4.81811L4.32631 0.853775ZM8.28666 0.708328C6.80839 0.708316 5.43912 0.704162 4.32631 0.853775L4.8593 4.81811C5.64518 4.71245 6.70197 4.70831 8.28663 4.70833L8.28666 0.708328ZM4.49946 6.16579C4.47917 6.18608 4.46286 6.18853 4.50161 6.17258C4.56119 6.14805 4.71089 6.09931 5.02586 6.05696L4.49287 2.09263C3.43176 2.23529 2.45681 2.55159 1.67103 3.33737L4.49946 6.16579ZM4.39062 6.6922C4.43297 6.37722 4.48171 6.22753 4.50624 6.16794C4.5222 6.1292 4.51974 6.14551 4.49946 6.16579L1.67103 3.33737C0.885253 4.12315 0.568955 5.0981 0.426293 6.15921L4.39062 6.6922ZM4.29199 10C4.29199 8.35362 4.29759 7.38415 4.39062 6.6922L0.426293 6.15921C0.289047 7.18003 0.291993 8.46834 0.291993 10H4.29199ZM4.39062 13.3078C4.29759 12.6158 4.29199 11.6464 4.29199 10H0.291993C0.291993 11.5317 0.289047 12.82 0.426293 13.8408L4.39062 13.3078ZM4.49946 13.8342C4.51974 13.8545 4.5222 13.8708 4.50624 13.832C4.48171 13.7725 4.43297 13.6228 4.39062 13.3078L0.426293 13.8408C0.568955 14.9019 0.885253 15.8768 1.67103 16.6626L4.49946 13.8342ZM5.02586 13.943C4.71089 13.9007 4.56119 13.8519 4.50161 13.8274C4.46286 13.8115 4.47917 13.8139 4.49946 13.8342L1.67103 16.6626C2.45681 17.4484 3.43176 17.7647 4.49287 17.9074L5.02586 13.943ZM8.33366 14.0417C6.68728 14.0417 5.71782 14.0361 5.02586 13.943L4.49287 17.9074C5.51369 18.0446 6.802 18.0417 8.33366 18.0417V14.0417ZM11.667 14.0417H8.33366V18.0417H11.667V14.0417ZM14.9748 13.943C14.2828 14.0361 13.3134 14.0417 11.667 14.0417V18.0417C13.1986 18.0417 14.487 18.0446 15.5078 17.9074L14.9748 13.943ZM15.5012 13.8342C15.5215 13.8139 15.5378 13.8115 15.499 13.8274C15.4395 13.8519 15.2898 13.9007 14.9748 13.943L15.5078 17.9074C16.5689 17.7647 17.5438 17.4484 18.3296 16.6626L15.5012 13.8342ZM15.61 13.3078C15.5677 13.6228 15.5189 13.7725 15.4944 13.832C15.4785 13.8708 15.4809 13.8545 15.5012 13.8342L18.3296 16.6626C19.1154 15.8768 19.4317 14.9019 19.5744 13.8408L15.61 13.3078ZM15.7087 10C15.7087 11.6464 15.7031 12.6158 15.61 13.3078L19.5744 13.8408C19.7116 12.82 19.7087 11.5317 19.7087 10H15.7087ZM15.61 6.6922C15.7031 7.38415 15.7087 8.35362 15.7087 10H19.7087C19.7087 8.46834 19.7116 7.18003 19.5744 6.15921L15.61 6.6922ZM15.5012 6.1658C15.4809 6.14551 15.4785 6.1292 15.4944 6.16795C15.5189 6.22753 15.5677 6.37722 15.61 6.6922L19.5744 6.15921C19.4317 5.0981 19.1154 4.12315 18.3296 3.33737L15.5012 6.1658ZM14.9748 6.05696C15.2898 6.09931 15.4395 6.14805 15.499 6.17258C15.5378 6.18853 15.5215 6.18608 15.5012 6.16579L18.3296 3.33737C17.5438 2.55159 16.5689 2.23529 15.5078 2.09263L14.9748 6.05696ZM11.667 5.95833C13.3134 5.95833 14.2828 5.96393 14.9748 6.05696L15.5078 2.09263C14.487 1.95538 13.1986 1.95833 11.667 1.95833V5.95833ZM8.33366 5.95833H11.667V1.95833H8.33366V5.95833ZM5.02586 6.05696C5.71782 5.96393 6.68728 5.95833 8.33366 5.95833V1.95833C6.802 1.95833 5.51369 1.95538 4.49287 2.09263L5.02586 6.05696ZM6.68081 4.65008C5.56708 3.72198 3.91185 3.87245 2.98374 4.98618L6.05663 7.54692C5.57048 8.1303 4.70345 8.20912 4.12007 7.72297L6.68081 4.65008ZM8.47989 6.14931L6.68081 4.65008L4.12007 7.72297L5.91915 9.2222L8.47989 6.14931ZM10.0544 7.39298C9.72705 7.18247 9.29723 6.83043 8.47989 6.14931L5.91915 9.2222C6.65674 9.83686 7.30648 10.3815 7.8906 10.7572L10.0544 7.39298ZM10.0003 7.45406C10.0413 7.45406 10.0856 7.45766 10.1295 7.46545C10.1726 7.47309 10.2028 7.48253 10.217 7.48761C10.2299 7.49222 10.2241 7.49123 10.1962 7.47688C10.168 7.4623 10.1218 7.43638 10.0544 7.39298L7.89061 10.7572C8.50713 11.1538 9.18519 11.4541 10.0003 11.4541V7.45406ZM9.9463 7.39298C9.87881 7.43638 9.83265 7.4623 9.80441 7.47688C9.7766 7.49123 9.77074 7.49222 9.78365 7.48761C9.79786 7.48253 9.82802 7.47309 9.87112 7.46545C9.91504 7.45766 9.95937 7.45406 10.0003 7.45406V11.4541C10.8155 11.4541 11.4935 11.1538 12.11 10.7572L9.9463 7.39298ZM11.5208 6.14931C10.7034 6.83043 10.2736 7.18247 9.9463 7.39298L12.11 10.7572C12.6942 10.3815 13.3439 9.83685 14.0815 9.2222L11.5208 6.14931ZM13.3198 4.65008L11.5208 6.14931L14.0815 9.2222L15.8806 7.72297L13.3198 4.65008ZM17.0169 4.98618C16.0888 3.87245 14.4336 3.72198 13.3198 4.65008L15.8806 7.72297C15.2972 8.20912 14.4302 8.1303 13.944 7.54692L17.0169 4.98618ZM16.6808 8.68324C17.7945 7.75514 17.945 6.09991 17.0169 4.98618L13.944 7.54692C13.4579 6.96353 13.5367 6.09651 14.1201 5.61036L16.6808 8.68324ZM12.7862 11.8086C13.4419 11.3868 14.1475 10.7943 14.8504 10.2086L12.2896 7.13572C11.5153 7.78105 11.0235 8.18637 10.6225 8.44431L12.7862 11.8086ZM10.0003 12.7041C11.1462 12.7041 12.0613 12.2748 12.7862 11.8086L10.6225 8.44431C10.2466 8.68606 10.0896 8.70406 10.0003 8.70406V12.7041ZM7.21444 11.8086C7.93937 12.2748 8.8545 12.7041 10.0003 12.7041V8.70406C9.91103 8.70406 9.75407 8.68606 9.37818 8.4443L7.21444 11.8086ZM5.15023 10.2086C5.85313 10.7943 6.55872 11.3868 7.21443 11.8086L9.37818 8.44431C8.97713 8.18637 8.48538 7.78105 7.71102 7.13573L5.15023 10.2086ZM2.98375 4.98618C2.05564 6.0999 2.20611 7.75514 3.31984 8.68324L5.88058 5.61036C6.46396 6.09651 6.54278 6.96354 6.05663 7.54692L2.98375 4.98618ZM11.714 0.708328H8.28664V4.70833H11.714V0.708328ZM20.9587 10.047V9.95299H16.9587V10.047H20.9587ZM8.28665 19.2917H11.714V15.2917H8.28665V19.2917ZM-0.958008 9.95298V10.047H3.04199V9.95298H-0.958008ZM14.8504 10.2086L16.6808 8.68324L14.1201 5.61036L12.2897 7.1357L14.8504 10.2086ZM3.31984 8.68324L5.15026 10.2086L7.711 7.1357L5.88058 5.61036L3.31984 8.68324Z" fill="#171717" mask="url(#path-1-inside-1_57_1441)"/>
<mask id="path-3-inside-2_57_1441" fill="white">
<path fill-rule="evenodd" clip-rule="evenodd" d="M8.28664 2.70833H11.714C13.2455 2.70832 14.4585 2.7083 15.4078 2.83594C16.3849 2.9673 17.1757 3.24406 17.7993 3.8677C18.4229 4.49133 18.6997 5.28212 18.831 6.25914C18.9587 7.20849 18.9587 8.42152 18.9587 9.95299V10.047C18.9587 11.5785 18.9587 12.7915 18.831 13.7408C18.6997 14.7179 18.4229 15.5087 17.7993 16.1323C17.1757 16.7559 16.3849 17.0327 15.4078 17.164C14.4585 17.2917 13.2455 17.2917 11.714 17.2917H8.28665C6.75518 17.2917 5.54215 17.2917 4.59281 17.164C3.61579 17.0327 2.825 16.7559 2.20136 16.1323C1.57773 15.5087 1.30096 14.7179 1.1696 13.7408C1.04197 12.7915 1.04198 11.5785 1.04199 10.047V9.95298C1.04198 8.42151 1.04197 7.20849 1.1696 6.25914C1.30096 5.28212 1.57773 4.49133 2.20136 3.8677C2.825 3.24406 3.61579 2.9673 4.59281 2.83594C5.54215 2.7083 6.75518 2.70832 8.28664 2.70833ZM4.75937 4.07479C3.92096 4.18752 3.43792 4.39891 3.08525 4.75158C2.73257 5.10426 2.52118 5.58729 2.40846 6.4257C2.29332 7.28209 2.29199 8.41098 2.29199 10C2.29199 11.589 2.29332 12.7179 2.40846 13.5743C2.52118 14.4127 2.73257 14.8957 3.08525 15.2484C3.43792 15.6011 3.92096 15.8125 4.75937 15.9252C5.61575 16.0403 6.74464 16.0417 8.33366 16.0417H11.667C13.256 16.0417 14.3849 16.0403 15.2413 15.9252C16.0797 15.8125 16.5627 15.6011 16.9154 15.2484C17.2681 14.8957 17.4795 14.4127 17.5922 13.5743C17.7073 12.7179 17.7087 11.589 17.7087 10C17.7087 8.41098 17.7073 7.28209 17.5922 6.4257C17.4795 5.58729 17.2681 5.10426 16.9154 4.75158C16.5627 4.39891 16.0797 4.18752 15.2413 4.07479C14.3849 3.95966 13.256 3.95833 11.667 3.95833H8.33366C6.74464 3.95833 5.61575 3.95966 4.75937 4.07479ZM4.52019 6.26655C4.74117 6.00137 5.13527 5.96555 5.40044 6.18652L7.19952 7.68576C7.97699 8.33365 8.51677 8.78201 8.97248 9.0751C9.41361 9.35882 9.71277 9.45406 10.0003 9.45406C10.2879 9.45406 10.587 9.35882 11.0282 9.0751C11.4839 8.78201 12.0237 8.33364 12.8011 7.68576L14.6002 6.18652C14.8654 5.96555 15.2595 6.00137 15.4805 6.26655C15.7014 6.53172 15.6656 6.92582 15.4004 7.1468L13.57 8.67214C12.8314 9.28769 12.2327 9.7866 11.7043 10.1264C11.1539 10.4804 10.6179 10.7041 10.0003 10.7041C9.38276 10.7041 8.84672 10.4804 8.29631 10.1264C7.76792 9.7866 7.16925 9.28769 6.43063 8.67215L4.60021 7.1468C4.33504 6.92582 4.29921 6.53172 4.52019 6.26655Z"/>
</mask>
<path d="M8.28664 2.70833L8.28663 4.70833H8.28664V2.70833ZM11.714 2.70833V4.70833H11.714L11.714 2.70833ZM15.4078 2.83594L15.6743 0.853775H15.6743L15.4078 2.83594ZM17.7993 3.8677L16.3851 5.28191L16.3851 5.28191L17.7993 3.8677ZM18.831 6.25914L16.8489 6.52564V6.52564L18.831 6.25914ZM18.9587 9.95299L16.9587 9.95297V9.95299H18.9587ZM18.9587 10.047H16.9587V10.047L18.9587 10.047ZM18.831 13.7408L16.8489 13.4744V13.4744L18.831 13.7408ZM17.7993 16.1323L16.3851 14.7181L16.3851 14.7181L17.7993 16.1323ZM15.4078 17.164L15.1414 15.1819H15.1413L15.4078 17.164ZM11.714 17.2917L11.714 15.2917H11.714V17.2917ZM8.28665 17.2917V15.2917H8.28663L8.28665 17.2917ZM4.59281 17.164L4.8593 15.1819H4.8593L4.59281 17.164ZM2.20136 16.1323L3.61558 14.7181L3.61557 14.7181L2.20136 16.1323ZM1.1696 13.7408L-0.812561 14.0073L1.1696 13.7408ZM1.04199 10.047L3.04199 10.047V10.047H1.04199ZM1.04199 9.95298H3.04199V9.95296L1.04199 9.95298ZM1.1696 6.25914L3.15177 6.52564L1.1696 6.25914ZM2.20136 3.8677L3.61558 5.28191L2.20136 3.8677ZM4.59281 2.83594L4.8593 4.81811L4.59281 2.83594ZM3.08525 4.75158L1.67103 3.33737L1.67103 3.33737L3.08525 4.75158ZM4.75937 4.07479L4.49287 2.09263L4.75937 4.07479ZM2.40846 6.4257L0.426293 6.15921L2.40846 6.4257ZM2.40846 13.5743L0.426293 13.8408L2.40846 13.5743ZM3.08525 15.2484L1.67103 16.6626L1.67103 16.6626L3.08525 15.2484ZM4.75937 15.9252L4.49287 17.9074H4.49287L4.75937 15.9252ZM15.2413 15.9252L15.5078 17.9074L15.5078 17.9074L15.2413 15.9252ZM16.9154 15.2484L15.5012 13.8342L15.5012 13.8342L16.9154 15.2484ZM17.5922 13.5743L15.61 13.3078V13.3078L17.5922 13.5743ZM17.5922 6.4257L15.61 6.6922V6.6922L17.5922 6.4257ZM16.9154 4.75158L15.5012 6.16579L15.5012 6.1658L16.9154 4.75158ZM15.2413 4.07479L14.9748 6.05696L14.9748 6.05696L15.2413 4.07479ZM5.40044 6.18652L4.12007 7.72297L4.12007 7.72297L5.40044 6.18652ZM4.52019 6.26655L6.05663 7.54692L6.05663 7.54692L4.52019 6.26655ZM7.19952 7.68576L8.47989 6.14931L8.47989 6.14931L7.19952 7.68576ZM8.97248 9.0751L7.8906 10.7572L7.89061 10.7572L8.97248 9.0751ZM11.0282 9.0751L12.11 10.7572L12.11 10.7572L11.0282 9.0751ZM12.8011 7.68576L14.0815 9.2222L12.8011 7.68576ZM14.6002 6.18652L15.8806 7.72297V7.72297L14.6002 6.18652ZM15.4004 7.1468L16.6808 8.68324L16.6808 8.68324L15.4004 7.1468ZM13.57 8.67214L12.2897 7.1357L12.2896 7.13572L13.57 8.67214ZM11.7043 10.1264L12.7862 11.8086H12.7862L11.7043 10.1264ZM8.29631 10.1264L7.21443 11.8086L7.21444 11.8086L8.29631 10.1264ZM6.43063 8.67215L7.71102 7.13573L7.711 7.1357L6.43063 8.67215ZM4.60021 7.1468L3.31984 8.68324L3.31984 8.68324L4.60021 7.1468ZM15.6743 0.853775C14.5615 0.704162 13.1923 0.708316 11.714 0.708328L11.714 4.70833C13.2987 4.70831 14.3555 4.71245 15.1413 4.81811L15.6743 0.853775ZM19.2135 2.45348C18.156 1.39602 16.8725 1.01487 15.6743 0.853775L15.1413 4.81811C15.8972 4.91973 16.1953 5.09211 16.3851 5.28191L19.2135 2.45348ZM20.8132 5.99265C20.6521 4.79448 20.271 3.51095 19.2135 2.45348L16.3851 5.28191C16.5749 5.47172 16.7473 5.76977 16.8489 6.52564L20.8132 5.99265ZM20.9587 9.953C20.9587 8.47473 20.9628 7.10546 20.8132 5.99265L16.8489 6.52564C16.9545 7.31152 16.9587 8.36831 16.9587 9.95297L20.9587 9.953ZM20.8132 14.0073C20.9628 12.8945 20.9587 11.5253 20.9587 10.047L16.9587 10.047C16.9587 11.6317 16.9545 12.6885 16.8489 13.4744L20.8132 14.0073ZM19.2135 17.5465C20.271 16.489 20.6521 15.2055 20.8132 14.0073L16.8489 13.4744C16.7473 14.2302 16.5749 14.5283 16.3851 14.7181L19.2135 17.5465ZM15.6743 19.1462C16.8725 18.9851 18.156 18.604 19.2135 17.5465L16.3851 14.7181C16.1953 14.9079 15.8972 15.0803 15.1414 15.1819L15.6743 19.1462ZM11.714 19.2917C13.1923 19.2917 14.5615 19.2958 15.6743 19.1462L15.1413 15.1819C14.3555 15.2875 13.2987 15.2917 11.714 15.2917L11.714 19.2917ZM4.32631 19.1462C5.43912 19.2958 6.80839 19.2917 8.28667 19.2917L8.28663 15.2917C6.70197 15.2917 5.64518 15.2875 4.8593 15.1819L4.32631 19.1462ZM0.787148 17.5465C1.84462 18.604 3.12814 18.9851 4.32631 19.1462L4.8593 15.1819C4.10344 15.0803 3.80538 14.9079 3.61558 14.7181L0.787148 17.5465ZM-0.812561 14.0073C-0.651471 15.2055 -0.270319 16.489 0.787149 17.5465L3.61557 14.7181C3.42577 14.5283 3.25339 14.2302 3.15177 13.4744L-0.812561 14.0073ZM-0.958008 10.047C-0.95802 11.5253 -0.962174 12.8945 -0.812561 14.0073L3.15177 13.4744C3.04611 12.6885 3.04198 11.6317 3.04199 10.047L-0.958008 10.047ZM-0.812561 5.99265C-0.962174 7.10546 -0.95802 8.47473 -0.958008 9.953L3.04199 9.95296C3.04198 8.3683 3.04611 7.31152 3.15177 6.52564L-0.812561 5.99265ZM0.787148 2.45348C-0.27032 3.51095 -0.651471 4.79448 -0.812561 5.99265L3.15177 6.52564C3.25339 5.76977 3.42577 5.47172 3.61558 5.28191L0.787148 2.45348ZM4.32631 0.853775C3.12814 1.01487 1.84462 1.39602 0.787148 2.45348L3.61558 5.28191C3.80538 5.09211 4.10344 4.91973 4.8593 4.81811L4.32631 0.853775ZM8.28666 0.708328C6.80839 0.708316 5.43912 0.704162 4.32631 0.853775L4.8593 4.81811C5.64518 4.71245 6.70197 4.70831 8.28663 4.70833L8.28666 0.708328ZM4.49946 6.16579C4.47917 6.18608 4.46286 6.18853 4.50161 6.17258C4.56119 6.14805 4.71089 6.09931 5.02586 6.05696L4.49287 2.09263C3.43176 2.23529 2.45681 2.55159 1.67103 3.33737L4.49946 6.16579ZM4.39062 6.6922C4.43297 6.37722 4.48171 6.22753 4.50624 6.16794C4.5222 6.1292 4.51974 6.14551 4.49946 6.16579L1.67103 3.33737C0.885253 4.12315 0.568955 5.0981 0.426293 6.15921L4.39062 6.6922ZM4.29199 10C4.29199 8.35362 4.29759 7.38415 4.39062 6.6922L0.426293 6.15921C0.289047 7.18003 0.291993 8.46834 0.291993 10H4.29199ZM4.39062 13.3078C4.29759 12.6158 4.29199 11.6464 4.29199 10H0.291993C0.291993 11.5317 0.289047 12.82 0.426293 13.8408L4.39062 13.3078ZM4.49946 13.8342C4.51974 13.8545 4.5222 13.8708 4.50624 13.832C4.48171 13.7725 4.43297 13.6228 4.39062 13.3078L0.426293 13.8408C0.568955 14.9019 0.885253 15.8768 1.67103 16.6626L4.49946 13.8342ZM5.02586 13.943C4.71089 13.9007 4.56119 13.8519 4.50161 13.8274C4.46286 13.8115 4.47917 13.8139 4.49946 13.8342L1.67103 16.6626C2.45681 17.4484 3.43176 17.7647 4.49287 17.9074L5.02586 13.943ZM8.33366 14.0417C6.68728 14.0417 5.71782 14.0361 5.02586 13.943L4.49287 17.9074C5.51369 18.0446 6.802 18.0417 8.33366 18.0417V14.0417ZM11.667 14.0417H8.33366V18.0417H11.667V14.0417ZM14.9748 13.943C14.2828 14.0361 13.3134 14.0417 11.667 14.0417V18.0417C13.1986 18.0417 14.487 18.0446 15.5078 17.9074L14.9748 13.943ZM15.5012 13.8342C15.5215 13.8139 15.5378 13.8115 15.499 13.8274C15.4395 13.8519 15.2898 13.9007 14.9748 13.943L15.5078 17.9074C16.5689 17.7647 17.5438 17.4484 18.3296 16.6626L15.5012 13.8342ZM15.61 13.3078C15.5677 13.6228 15.5189 13.7725 15.4944 13.832C15.4785 13.8708 15.4809 13.8545 15.5012 13.8342L18.3296 16.6626C19.1154 15.8768 19.4317 14.9019 19.5744 13.8408L15.61 13.3078ZM15.7087 10C15.7087 11.6464 15.7031 12.6158 15.61 13.3078L19.5744 13.8408C19.7116 12.82 19.7087 11.5317 19.7087 10H15.7087ZM15.61 6.6922C15.7031 7.38415 15.7087 8.35362 15.7087 10H19.7087C19.7087 8.46834 19.7116 7.18003 19.5744 6.15921L15.61 6.6922ZM15.5012 6.1658C15.4809 6.14551 15.4785 6.1292 15.4944 6.16795C15.5189 6.22753 15.5677 6.37722 15.61 6.6922L19.5744 6.15921C19.4317 5.0981 19.1154 4.12315 18.3296 3.33737L15.5012 6.1658ZM14.9748 6.05696C15.2898 6.09931 15.4395 6.14805 15.499 6.17258C15.5378 6.18853 15.5215 6.18608 15.5012 6.16579L18.3296 3.33737C17.5438 2.55159 16.5689 2.23529 15.5078 2.09263L14.9748 6.05696ZM11.667 5.95833C13.3134 5.95833 14.2828 5.96393 14.9748 6.05696L15.5078 2.09263C14.487 1.95538 13.1986 1.95833 11.667 1.95833V5.95833ZM8.33366 5.95833H11.667V1.95833H8.33366V5.95833ZM5.02586 6.05696C5.71782 5.96393 6.68728 5.95833 8.33366 5.95833V1.95833C6.802 1.95833 5.51369 1.95538 4.49287 2.09263L5.02586 6.05696ZM6.68081 4.65008C5.56708 3.72198 3.91185 3.87245 2.98374 4.98618L6.05663 7.54692C5.57048 8.1303 4.70345 8.20912 4.12007 7.72297L6.68081 4.65008ZM8.47989 6.14931L6.68081 4.65008L4.12007 7.72297L5.91915 9.2222L8.47989 6.14931ZM10.0544 7.39298C9.72705 7.18247 9.29723 6.83043 8.47989 6.14931L5.91915 9.2222C6.65674 9.83686 7.30648 10.3815 7.8906 10.7572L10.0544 7.39298ZM10.0003 7.45406C10.0413 7.45406 10.0856 7.45766 10.1295 7.46545C10.1726 7.47309 10.2028 7.48253 10.217 7.48761C10.2299 7.49222 10.2241 7.49123 10.1962 7.47688C10.168 7.4623 10.1218 7.43638 10.0544 7.39298L7.89061 10.7572C8.50713 11.1538 9.18519 11.4541 10.0003 11.4541V7.45406ZM9.9463 7.39298C9.87881 7.43638 9.83265 7.4623 9.80441 7.47688C9.7766 7.49123 9.77074 7.49222 9.78365 7.48761C9.79786 7.48253 9.82802 7.47309 9.87112 7.46545C9.91504 7.45766 9.95937 7.45406 10.0003 7.45406V11.4541C10.8155 11.4541 11.4935 11.1538 12.11 10.7572L9.9463 7.39298ZM11.5208 6.14931C10.7034 6.83043 10.2736 7.18247 9.9463 7.39298L12.11 10.7572C12.6942 10.3815 13.3439 9.83685 14.0815 9.2222L11.5208 6.14931ZM13.3198 4.65008L11.5208 6.14931L14.0815 9.2222L15.8806 7.72297L13.3198 4.65008ZM17.0169 4.98618C16.0888 3.87245 14.4336 3.72198 13.3198 4.65008L15.8806 7.72297C15.2972 8.20912 14.4302 8.1303 13.944 7.54692L17.0169 4.98618ZM16.6808 8.68324C17.7945 7.75514 17.945 6.09991 17.0169 4.98618L13.944 7.54692C13.4579 6.96353 13.5367 6.09651 14.1201 5.61036L16.6808 8.68324ZM12.7862 11.8086C13.4419 11.3868 14.1475 10.7943 14.8504 10.2086L12.2896 7.13572C11.5153 7.78105 11.0235 8.18637 10.6225 8.44431L12.7862 11.8086ZM10.0003 12.7041C11.1462 12.7041 12.0613 12.2748 12.7862 11.8086L10.6225 8.44431C10.2466 8.68606 10.0896 8.70406 10.0003 8.70406V12.7041ZM7.21444 11.8086C7.93937 12.2748 8.8545 12.7041 10.0003 12.7041V8.70406C9.91103 8.70406 9.75407 8.68606 9.37818 8.4443L7.21444 11.8086ZM5.15023 10.2086C5.85313 10.7943 6.55872 11.3868 7.21443 11.8086L9.37818 8.44431C8.97713 8.18637 8.48538 7.78105 7.71102 7.13573L5.15023 10.2086ZM2.98375 4.98618C2.05564 6.0999 2.20611 7.75514 3.31984 8.68324L5.88058 5.61036C6.46396 6.09651 6.54278 6.96354 6.05663 7.54692L2.98375 4.98618ZM11.714 0.708328H8.28664V4.70833H11.714V0.708328ZM20.9587 10.047V9.95299H16.9587V10.047H20.9587ZM8.28665 19.2917H11.714V15.2917H8.28665V19.2917ZM-0.958008 9.95298V10.047H3.04199V9.95298H-0.958008ZM14.8504 10.2086L16.6808 8.68324L14.1201 5.61036L12.2897 7.1357L14.8504 10.2086ZM3.31984 8.68324L5.15026 10.2086L7.711 7.1357L5.88058 5.61036L3.31984 8.68324Z" fill="#171717" mask="url(#path-3-inside-2_57_1441)"/>
</svg>
