<svg width="20" height="20" viewBox="0 0 20 20" fill="none" xmlns="http://www.w3.org/2000/svg">
<path fill-rule="evenodd" clip-rule="evenodd" d="M7.23273 3.74382C9.72449 1.25206 13.7644 1.25206 16.2562 3.74382C18.7479 6.23558 18.7479 10.2755 16.2562 12.7673C14.6011 14.4223 12.2633 14.9773 10.1519 14.4351C10.027 14.403 9.93172 14.4406 9.88521 14.4871L6.79158 17.5807C6.39239 17.9799 5.83339 18.176 5.27232 18.1136L3.53183 17.9202C3.20522 17.8839 2.90068 17.7376 2.66831 17.5052L2.4948 17.3317C2.26242 17.0993 2.11606 16.7948 2.07977 16.4682L1.88638 14.7277C1.82404 14.1666 2.02012 13.6076 2.41931 13.2084L5.51271 10.115C5.55939 10.0683 5.59692 9.97269 5.56491 9.84805C5.02271 7.73668 5.57768 5.39887 7.23273 3.74382ZM15.3723 4.6277C13.3687 2.6241 10.1202 2.6241 8.11662 4.6277C6.78677 5.95755 6.3388 7.83609 6.77563 9.53714C6.90152 10.0274 6.79881 10.5967 6.3966 10.9989L3.30319 14.0923C3.17251 14.223 3.10833 14.406 3.12873 14.5896L3.32212 16.3301C3.32707 16.3746 3.34701 16.4161 3.37868 16.4478L3.55219 16.6213C3.58385 16.653 3.62536 16.6729 3.66987 16.6779L5.41036 16.8713C5.59403 16.8917 5.77702 16.8275 5.90769 16.6968L6.49698 16.1075L5.48626 15.1079C5.24084 14.8651 5.23867 14.4694 5.4814 14.224C5.72413 13.9786 6.11985 13.9764 6.36527 14.2191L7.38088 15.2236L9.00133 13.6032C9.40372 13.2008 9.9729 13.0986 10.4629 13.2244C12.1639 13.6612 14.0425 13.2132 15.3723 11.8834C17.3759 9.87978 17.3759 6.6313 15.3723 4.6277ZM10.0462 6.71288C10.9412 5.81793 12.3922 5.81793 13.2871 6.71288C14.1821 7.60783 14.1821 9.05883 13.2871 9.95379C12.3922 10.8487 10.9412 10.8487 10.0462 9.95379C9.15127 9.05883 9.15127 7.60783 10.0462 6.71288ZM12.4032 7.59676C11.9964 7.18997 11.3369 7.18997 10.9301 7.59676C10.5233 8.00356 10.5233 8.66311 10.9301 9.0699C11.3369 9.4767 11.9964 9.4767 12.4032 9.0699C12.81 8.66311 12.81 8.00356 12.4032 7.59676Z" fill="#171717"/>
</svg>
