<svg width="20" height="20" viewBox="0 0 20 20" fill="none" xmlns="http://www.w3.org/2000/svg">
<path fill-rule="evenodd" clip-rule="evenodd" d="M5.00623 2.83908C6.40629 1.43903 8.76891 1.54546 9.74375 3.29223L10.2846 4.26133C10.9212 5.40202 10.6499 6.84125 9.71799 7.78456C9.70558 7.80156 9.6398 7.89734 9.63161 8.06469C9.62115 8.27829 9.69701 8.77227 10.4624 9.53763C11.2275 10.3027 11.7214 10.3788 11.9351 10.3684C12.1026 10.3602 12.1984 10.2944 12.2154 10.282C13.1588 9.35008 14.598 9.0788 15.7387 9.7154L16.7078 10.2562C18.4545 11.2311 18.561 13.5937 17.1609 14.9938C16.412 15.7427 15.4163 16.4081 14.2461 16.4524C12.512 16.5182 9.63263 16.0703 6.78114 13.2189C3.92966 10.3674 3.48183 7.488 3.54757 5.7539C3.59193 4.58373 4.25735 3.58797 5.00623 2.83908ZM8.65223 3.90139C8.15305 3.00694 6.81164 2.80144 5.89011 3.72297C5.24399 4.36909 4.82393 5.08227 4.79668 5.80125C4.74185 7.24737 5.09889 9.76883 7.66503 12.335C10.2312 14.9011 12.7526 15.2581 14.1987 15.2033C14.9177 15.1761 15.6309 14.756 16.277 14.1099C17.1986 13.1884 16.9931 11.8469 16.0986 11.3478L15.1295 10.8069C14.5267 10.4705 13.6799 10.5852 13.0855 11.1797L13.0853 11.1798C13.0269 11.2382 12.6554 11.5848 11.9958 11.6169C11.3206 11.6498 10.5034 11.3464 9.57849 10.4215C8.65331 9.49634 8.35004 8.67883 8.38311 8.00356C8.4154 7.34396 8.76225 6.97263 8.82029 6.91458L8.82032 6.91456C9.41475 6.32013 9.52951 5.47334 9.19307 4.8705L8.65223 3.90139Z" fill="#FFFDFC"/>
</svg>
