<svg width="20" height="20" viewBox="0 0 20 20" fill="none" xmlns="http://www.w3.org/2000/svg">
<path fill-rule="evenodd" clip-rule="evenodd" d="M10.0003 1.04166C10.3455 1.04166 10.6253 1.32148 10.6253 1.66666V2.49999C10.6253 2.84517 10.3455 3.12499 10.0003 3.12499C9.65515 3.12499 9.37533 2.84517 9.37533 2.49999V1.66666C9.37533 1.32148 9.65515 1.04166 10.0003 1.04166ZM3.66583 3.6655C3.90991 3.42142 4.30564 3.42142 4.54972 3.6655L4.87708 3.99286C5.12116 4.23694 5.12116 4.63267 4.87708 4.87675C4.633 5.12082 4.23728 5.12082 3.9932 4.87675L3.66583 4.54938C3.42176 4.3053 3.42176 3.90958 3.66583 3.6655ZM16.3346 3.66571C16.5787 3.90979 16.5787 4.30552 16.3346 4.5496L16.0072 4.87696C15.7632 5.12104 15.3674 5.12104 15.1234 4.87696C14.8793 4.63288 14.8793 4.23716 15.1234 3.99308L15.4507 3.66571C15.6948 3.42164 16.0905 3.42164 16.3346 3.66571ZM10.0003 5.62499C7.58408 5.62499 5.62533 7.58374 5.62533 9.99999C5.62533 12.4162 7.58408 14.375 10.0003 14.375C12.4166 14.375 14.3753 12.4162 14.3753 9.99999C14.3753 7.58374 12.4166 5.62499 10.0003 5.62499ZM4.37533 9.99999C4.37533 6.89339 6.89372 4.37499 10.0003 4.37499C13.1069 4.37499 15.6253 6.89339 15.6253 9.99999C15.6253 13.1066 13.1069 15.625 10.0003 15.625C6.89372 15.625 4.37533 13.1066 4.37533 9.99999ZM1.04199 9.99999C1.04199 9.65481 1.32181 9.37499 1.66699 9.37499H2.50033C2.8455 9.37499 3.12533 9.65481 3.12533 9.99999C3.12533 10.3452 2.8455 10.625 2.50033 10.625H1.66699C1.32181 10.625 1.04199 10.3452 1.04199 9.99999ZM16.8753 9.99999C16.8753 9.65481 17.1551 9.37499 17.5003 9.37499H18.3337C18.6788 9.37499 18.9587 9.65481 18.9587 9.99999C18.9587 10.3452 18.6788 10.625 18.3337 10.625H17.5003C17.1551 10.625 16.8753 10.3452 16.8753 9.99999ZM15.1234 15.123C15.3674 14.8789 15.7632 14.8789 16.0072 15.123L16.3346 15.4504C16.5787 15.6945 16.5787 16.0902 16.3346 16.3343C16.0905 16.5783 15.6948 16.5783 15.4507 16.3343L15.1234 16.0069C14.8793 15.7628 14.8793 15.3671 15.1234 15.123ZM4.87708 15.1232C5.12116 15.3673 5.12116 15.763 4.87708 16.0071L4.54972 16.3345C4.30564 16.5786 3.90991 16.5786 3.66583 16.3345C3.42176 16.0904 3.42176 15.6947 3.66583 15.4506L3.9932 15.1232C4.23728 14.8792 4.633 14.8792 4.87708 15.1232ZM10.0003 16.875C10.3455 16.875 10.6253 17.1548 10.6253 17.5V18.3333C10.6253 18.6785 10.3455 18.9583 10.0003 18.9583C9.65515 18.9583 9.37533 18.6785 9.37533 18.3333V17.5C9.37533 17.1548 9.65515 16.875 10.0003 16.875Z" fill="#171717"/>
</svg>
